<svg width="200" height="115" viewBox="0 0 200 115" fill="none" xmlns="http://www.w3.org/2000/svg">
<rect width="200" height="115" fill="#090909"/>
<path d="M118.715 49.4685C118.482 49.6124 113.35 52.6002 113.408 58.8162C113.473 66.2512 119.926 68.727 120 68.7551C119.942 68.9321 118.968 72.2815 116.598 75.7406C114.55 78.7373 112.429 81.717 109.08 81.7793C105.79 81.8395 104.73 79.8273 100.972 79.8273C97.2113 79.8273 96.0343 81.717 92.9233 81.8395C89.6912 81.9618 87.2305 78.6034 85.1673 75.6232C80.9496 69.5242 77.7248 58.3868 82.0549 50.8707C84.2047 47.138 88.0471 44.7731 92.2162 44.712C95.3912 44.652 98.3856 46.8465 100.328 46.8465C102.242 46.8465 105.673 44.2884 109.717 44.5876C111.302 44.705 115.802 45.1781 118.715 49.4685ZM107.222 40.5613C108.94 38.4855 110.095 35.5945 109.777 32.719C107.305 32.817 104.315 34.3657 102.542 36.4402C100.954 38.2779 99.5595 41.2213 99.9382 44.0381C102.694 44.251 105.506 42.6385 107.222 40.5613Z" fill="white"/>
</svg>
