<svg width="24" height="24" viewBox="0 0 24 24" fill="none" xmlns="http://www.w3.org/2000/svg">
<g clip-path="url(#clip0_465_1226)">
<path d="M12 2.15C15.2 2.15 15.6 2.15 16.85 2.2C18 2.3 18.65 2.5 19.1 2.65C19.65 2.85 20.05 3.15 20.5 3.55C20.9 3.95 21.2 4.35 21.4 4.95C21.55 5.35 21.75 6 21.8 7.2C21.85 8.45 21.85 8.85 21.85 12.05C21.85 15.25 21.85 15.65 21.8 16.9C21.75 18.05 21.55 18.7 21.4 19.15C21.2 19.7 20.9 20.1 20.5 20.55C20.1 20.95 19.7 21.25 19.1 21.45C18.7 21.6 18.05 21.8 16.85 21.85C15.6 21.9 15.2 21.9 12 21.9C8.8 21.9 8.4 21.9 7.15 21.85C6 21.8 5.35 21.6 4.9 21.45C4.35 21.25 3.95 20.95 3.5 20.55C3.1 20.15 2.8 19.75 2.6 19.15C2.5 18.65 2.3 18 2.25 16.85C2.2 15.6 2.2 15.2 2.2 12C2.2 8.8 2.2 8.4 2.25 7.15C2.3 6 2.5 5.35 2.65 4.9C2.85 4.35 3.15 3.95 3.55 3.5C3.95 3.1 4.35 2.8 4.95 2.6C5.35 2.5 6 2.3 7.15 2.25C8.4 2.15 8.8 2.15 12 2.15ZM12 0C8.75 0 8.35 0 7.05 0.05C5.75 0.1 4.9 0.3 4.15 0.6C3.35 0.95 2.7 1.35 2 2C1.35 2.7 0.95 3.35 0.65 4.15C0.35 4.9 0.15 5.8 0.1 7.05C0 8.35 0 8.75 0 12C0 15.25 0 15.65 0.05 16.95C0.1 18.25 0.3 19.1 0.6 19.85C0.95 20.65 1.35 21.3 2 22C2.65 22.65 3.35 23.1 4.15 23.4C4.9 23.7 5.8 23.9 7.05 23.95C8.35 24 8.75 24 12 24C15.25 24 15.65 24 16.95 23.95C18.25 23.9 19.1 23.7 19.85 23.4C20.65 23.1 21.3 22.7 22 22C22.65 21.35 23.1 20.65 23.4 19.85C23.7 19.1 23.9 18.2 23.95 16.95C24 15.65 24 15.25 24 12C24 8.75 24 8.35 23.95 7.05C23.9 5.75 23.7 4.9 23.4 4.15C23.05 3.35 22.65 2.7 22 2C21.35 1.35 20.65 0.9 19.85 0.6C19.1 0.3 18.2 0.1 16.95 0.05C15.65 0 15.25 0 12 0Z" fill="white"/>
<path d="M11.9996 5.84998C8.59961 5.84998 5.84961 8.59998 5.84961 12C5.84961 15.4 8.59961 18.15 11.9996 18.15C15.3996 18.15 18.1496 15.4 18.1496 12C18.1496 8.59998 15.3996 5.84998 11.9996 5.84998ZM11.9996 16C9.79961 16 7.99961 14.2 7.99961 12C7.99961 9.79998 9.79961 7.99998 11.9996 7.99998C14.1996 7.99998 15.9996 9.79998 15.9996 12C15.9996 14.2 14.1996 16 11.9996 16Z" fill="white"/>
<path d="M18.4002 7.05002C19.201 7.05002 19.8502 6.40084 19.8502 5.60002C19.8502 4.79921 19.201 4.15002 18.4002 4.15002C17.5994 4.15002 16.9502 4.79921 16.9502 5.60002C16.9502 6.40084 17.5994 7.05002 18.4002 7.05002Z" fill="white"/>
</g>
<defs>
<clipPath id="clip0_465_1226">
<rect width="24" height="24" fill="white"/>
</clipPath>
</defs>
</svg>
