<svg width="80" height="44" viewBox="0 0 80 44" fill="none" xmlns="http://www.w3.org/2000/svg">
<path d="M60.417 22.96V31.7472H61.5246V28.0181H63.0384C64.6998 27.9812 65.4752 27.2428 65.4752 27.2428C66.1397 26.6151 66.1397 25.5075 66.1397 25.5075C66.1397 24.2522 65.2906 23.5507 65.2906 23.5507C64.5521 22.96 63.4076 22.96 63.4076 22.96H60.417ZM63.6533 23.9176C64.2749 23.9057 64.5521 24.2522 64.5521 24.2522C64.9952 24.7691 64.9952 25.5075 64.9952 25.5075C64.9952 26.3198 64.626 26.689 64.626 26.689C64.1829 27.0582 63.4814 27.0951 63.4814 27.0951H61.5246V23.9199H63.5922C63.613 23.9188 63.6333 23.918 63.6533 23.9176Z" fill="white"/>
<path d="M67.1367 22.96V31.7472H68.2443V28.0181H69.795C71.3457 27.9812 72.1949 27.2428 72.1949 27.2428C72.7856 26.6151 72.8225 25.5075 72.8225 25.5075C72.8225 24.2522 71.9364 23.5507 71.9364 23.5507C71.2719 22.96 70.1642 22.96 70.1642 22.96H67.1367ZM70.3673 23.9176C70.926 23.9057 71.2719 24.2522 71.2719 24.2522C71.678 24.7691 71.678 25.5075 71.678 25.5075C71.678 26.3198 71.2719 26.689 71.2719 26.689C70.8657 27.0582 70.2012 27.0951 70.2012 27.0951H68.2443V23.9199H70.3119C70.3304 23.9188 70.3493 23.918 70.3673 23.9176Z" fill="white"/>
<path d="M74.9273 26.689H78.0286V27.6489H74.9273V30.7872H78.1394L78.7301 31.7472H73.7827V22.96H78.767L78.2132 23.9568H74.9273V26.689Z" fill="white"/>
<path d="M47.015 9.00365C47.015 9.00365 47.3473 9.00365 48.418 9.88975C48.418 9.88975 47.7903 10.702 47.015 10.7759L46.1658 10.5543L45.5382 10.3328C45.5382 10.3328 45.2797 10.3328 45.3166 10.5543L45.6858 11.1081C45.6858 11.1081 46.055 11.5881 46.092 12.105C46.092 12.105 46.055 13.1757 44.8736 13.1757C44.8736 13.1757 44.209 13.1757 43.5444 12.4742L42.3629 11.4404L41.5876 11.2189C41.5876 11.2189 41.6245 10.8497 42.1783 10.8866C42.1783 10.8866 42.3999 10.8497 42.9906 11.182L43.8398 11.4774C43.8398 11.4774 44.5044 11.4774 44.5044 10.9974C44.5044 10.9974 44.5044 10.1482 43.3598 10.1482H40V13.4342C40 13.4342 40 14.6156 40.8861 14.6156C40.8861 14.6156 41.3661 14.6156 41.403 13.988L41.0707 13.1388L40.7384 12.2896C40.7384 12.2896 40.7015 12.0312 41.1446 11.7358C41.1446 11.7358 41.1076 12.0681 41.2922 12.4373L42.326 13.6188C42.326 13.6188 43.0275 14.3572 43.0275 14.9848C43.0275 14.9848 43.0275 16.1294 41.9568 16.1294C41.9568 16.1294 41.4399 16.1294 40.9969 15.7971L40.4061 15.4279C40.4061 15.4279 40.2215 15.4279 40.2215 15.6863L40.4061 16.2771L40.6277 17.1263C40.6277 17.1263 40.6277 17.4955 39.8154 18.5293C39.8154 18.5293 38.9662 17.9016 38.9293 17.1263C38.9293 17.1263 38.9293 16.7571 39.1508 16.2771L39.3354 15.6863L39.1508 15.4279C39.1508 15.4279 39.0401 15.4279 38.597 15.7971L37.6001 16.1294C37.6001 16.1294 36.5294 16.1294 36.5294 14.9848C36.5294 14.9848 36.4925 14.3572 37.3048 13.5449L38.2647 12.4373L38.4124 11.7358C38.4124 11.7358 38.7816 11.7727 38.8185 12.2896L38.4862 13.1388C38.4862 13.1388 38.154 13.6926 38.154 13.988C38.154 13.988 38.154 14.6156 38.6709 14.6156C38.6709 14.6156 39.52 14.6156 39.557 13.4342V10.1482H36.1971C36.1971 10.1482 35.0157 10.1482 35.0157 10.9974C35.0157 10.9974 35.0157 11.4774 35.6803 11.4774L36.5664 11.182C36.5664 11.182 37.1202 10.8497 37.3786 10.8866C37.3786 10.8866 37.6371 10.8497 37.9694 11.2189L37.2679 11.4035L36.1233 12.3635C36.1233 12.3635 35.348 13.1757 34.6834 13.1757C34.6834 13.1757 33.5019 13.1757 33.5019 12.105C33.5019 12.105 33.465 11.5881 33.8711 11.1081L34.2773 10.5543L34.0188 10.3328L33.3912 10.5543L32.5789 10.7759C32.5789 10.7759 32.1728 10.7759 31.1021 9.88975C31.1021 9.88975 31.7297 9.11441 32.5789 9.00365L33.3912 9.2621L34.0188 9.48362L34.2773 9.22517L33.8711 8.70828C33.8711 8.70828 33.465 8.22831 33.5019 7.67449C33.5019 7.67449 33.5019 6.64071 34.6834 6.67763C34.6834 6.67763 35.311 6.64071 36.0495 7.30528L37.2679 8.41291L37.9694 8.5606C37.9694 8.5606 37.8955 8.89289 37.3786 8.96673L36.5664 8.63444C36.5664 8.63444 36.0125 8.26523 35.6803 8.30215C35.6803 8.30215 35.0157 8.30215 35.0157 8.81904C35.0157 8.81904 35.0157 9.63131 36.1971 9.63131H39.557V6.34534C39.557 6.34534 39.52 5.16387 38.6709 5.16387C38.6709 5.16387 38.154 5.16387 38.154 5.79152C38.154 5.79152 38.154 6.12381 38.4862 6.71455L38.8185 7.52681C38.8185 7.52681 38.8185 7.78526 38.4124 8.08062L38.2647 7.37913L37.2309 6.12381C37.2309 6.12381 36.5294 5.45924 36.5294 4.79466C36.5294 4.79466 36.5294 3.61319 37.6001 3.61319C37.6001 3.61319 38.117 3.61319 38.597 3.9824L39.1508 4.35161L39.3354 4.13008L39.1508 3.53934L38.9293 2.69016C38.9293 2.69016 38.9293 2.28403 39.8154 1.25024C39.8154 1.25024 40.5538 1.8779 40.6277 2.69016L40.4061 3.53934L40.2215 4.13008L40.4061 4.35161L40.9969 3.9824C40.9969 3.9824 41.4399 3.61319 41.9568 3.61319C41.9568 3.61319 43.0275 3.61319 43.0275 4.79466C43.0275 4.79466 43.0275 5.45924 42.326 6.12381L41.2922 7.37913C41.2922 7.37913 41.1076 7.71141 41.1446 8.08062C41.1446 8.08062 40.7753 8.0437 40.7384 7.52681C40.7384 7.52681 40.7384 7.26836 41.0707 6.71455L41.403 5.79152C41.403 5.79152 41.3661 5.16387 40.8861 5.16387C40.8861 5.16387 40 5.16387 40 6.34534V9.63131H43.3598C43.3598 9.63131 44.5044 9.63131 44.5044 8.81904C44.5044 8.81904 44.5044 8.30215 43.8398 8.30215C43.8398 8.30215 43.5444 8.26523 42.9906 8.63444L42.1783 8.96673C42.1783 8.96673 41.9199 8.96673 41.5876 8.5606L42.3629 8.33907L43.5444 7.30528C43.5444 7.30528 44.209 6.64071 44.8736 6.67763C44.8736 6.67763 46.055 6.64071 46.092 7.67449L45.6858 8.70828L45.3166 9.22517C45.3166 9.22517 45.2797 9.48362 45.5382 9.48362L46.1658 9.2621C46.1658 9.2621 46.6827 9.00365 47.015 9.00365Z" fill="white"/>
<path d="M34.8311 22.96V31.7472H35.9756V28.0181H37.4894C39.1139 27.9812 39.8892 27.2428 39.8892 27.2428C40.5538 26.6151 40.5538 25.5075 40.5538 25.5075C40.5538 24.2522 39.7046 23.5507 39.7046 23.5507C38.9662 22.96 37.8586 22.96 37.8586 22.96H34.8311ZM38.0674 23.9176C38.6889 23.9057 38.9662 24.2522 38.9662 24.2522C39.4462 24.7691 39.4462 25.5075 39.4462 25.5075C39.4462 26.3198 39.04 26.689 39.04 26.689C38.597 27.0582 37.8955 27.0951 37.8955 27.0951H35.9756V23.9199H38.0063C38.027 23.9188 38.0474 23.918 38.0674 23.9176Z" fill="white"/>
<path d="M42.5109 26.7259H46.4615V22.96H47.5691V31.7472H46.4615V27.7228H42.5109V31.7472H41.4033V22.96H42.5109V26.7259Z" fill="white"/>
<path d="M37.2309 36.4729L39.5939 40.7927V36.4729H40.2954V42.2326H39.5939L36.9725 37.5067V42.2326H36.271V36.4729H37.2309Z" fill="white"/>
<path d="M35.2741 37.1006H33.1327V38.9097H35.1633V39.5743H33.1327V41.6049H35.2741L35.6433 42.2326H32.4312V36.4729H35.6802L35.2741 37.1006Z" fill="white"/>
<path d="M42.0675 37.1006V38.9097H44.1351V39.5743H42.0675V41.6049H44.172L44.5043 42.2326H41.3291V36.4729H45.0581L46.7565 41.2726L48.4918 36.4729H49.1933L47.0519 42.2326H46.3134L44.4674 37.1006H42.0675Z" fill="white"/>
<path d="M58.7563 22.96V31.7472H57.6855V22.96H58.7563Z" fill="white"/>
<path d="M53.1071 22.96V30.7872H56.91V31.7472H51.9995V22.96H53.1071Z" fill="white"/>
<path d="M50.3383 22.96V31.7472H49.2676V22.96H50.3383Z" fill="white"/>
<path d="M50.4119 37.1006V38.9097H52.4795V39.5743H50.4119V41.6049H52.5903L52.9226 42.2326H49.7104V36.4729H52.9964L52.5903 37.1006H50.4119Z" fill="white"/>
<path d="M12.1987 23.9568V22.96H18.6599V23.9568H15.9647V31.7472H14.857V23.9568H12.1987Z" fill="white"/>
<path d="M9.2818 22.96L5.84814 31.7472H6.99269L7.76804 29.6427H11.7186L12.5308 31.7472H13.7862L10.3894 22.96H9.2818ZM9.76177 24.4737L11.3494 28.7196H8.17417L9.76177 24.4737Z" fill="white"/>
<path d="M1.23291 22.96V31.7472H2.37746V28.0181H3.92814C5.51574 27.9812 6.328 27.2428 6.328 27.2428C6.95566 26.6151 6.95566 25.5075 6.95566 25.5075C6.91874 24.2891 6.06956 23.5507 6.06956 23.5507C5.36806 22.96 4.26043 22.96 4.26043 22.96H1.23291ZM4.46695 23.9176C5.05924 23.9057 5.40498 24.2522 5.40498 24.2522C5.81111 24.7691 5.81111 25.5075 5.81111 25.5075C5.81111 26.3198 5.40498 26.689 5.40498 26.689C4.96193 27.0582 4.33427 27.0951 4.33427 27.0951H2.37746V23.9199H4.40811C4.42773 23.9188 4.44785 23.918 4.46695 23.9176Z" fill="white"/>
<path d="M26.3026 22.96V27.0951L30.1055 22.96H31.4716L28.5917 26.1352L31.5454 31.7472H30.2532L27.8533 26.9474L26.3026 28.535V31.7472H25.2319V22.96H26.3026Z" fill="white"/>
<path d="M23.7917 23.9568H20.4318V26.689H23.5332V27.6489H20.4318V30.7872H23.6809L24.2716 31.7472H19.3242V22.96H24.2716L23.7917 23.9568Z" fill="white"/>
<path d="M29.2932 36.3623C29.2932 36.3623 30.6593 36.3623 31.3977 37.5069L30.8808 37.9499C30.8808 37.9499 30.4008 37.0269 29.2932 36.99C29.2932 36.99 27.3733 36.99 27.3733 39.4637C27.3733 39.4637 27.3733 41.7158 29.2193 41.7158C29.2193 41.7158 30.1054 41.7158 30.6593 41.1251V39.9067H28.924V39.316H31.3977V41.3836C31.3977 41.3836 30.4008 42.3435 29.1455 42.3435C29.1455 42.3435 28.1117 42.3435 27.3364 41.5312C27.3364 41.5312 26.561 40.6821 26.561 39.4267C26.561 39.4267 26.561 38.0976 27.3364 37.2484C27.3364 37.2484 28.0748 36.3623 29.2932 36.3623Z" fill="white"/>
</svg>
