<svg width="101" height="46" viewBox="0 0 101 46" fill="none" xmlns="http://www.w3.org/2000/svg">
<path d="M9.94608 6.62326C14.6532 6.62394 18.4689 10.4399 18.4683 15.1469C18.4676 19.8541 14.6508 23.6698 9.94363 23.6692C5.23657 23.6684 1.42172 19.8516 1.42239 15.1445L1.42362 6.62203L9.94608 6.62326Z" stroke="white" stroke-width="2.84101"/>
<path d="M11.3653 15.146C11.3652 15.9304 10.7296 16.5667 9.94514 16.5667C9.16062 16.5666 8.52433 15.9301 8.52445 15.1456C8.52466 14.3611 9.16109 13.7257 9.94555 13.7259C10.7299 13.7261 11.3653 14.3616 11.3653 15.146Z" stroke="white" stroke-width="17.0461"/>
<path fill-rule="evenodd" clip-rule="evenodd" d="M0.00146484 40.1458V26.2273C2.77128 28.3078 6.21417 29.5406 9.94501 29.5406C13.6758 29.5406 17.1187 28.3078 19.8886 26.2273V40.1458C17.1187 38.0653 13.6758 36.8325 9.94501 36.8325C6.21417 36.8325 2.77127 38.0653 0.00146484 40.1458Z" fill="#09BC68"/>
<path d="M26.3089 10V2.28511H26.7798V9.56302H30.5468V10H26.3089ZM31.7579 12.1698C31.6424 12.1698 31.5281 12.1573 31.4151 12.1321C31.3021 12.107 31.2004 12.0744 31.11 12.0342L31.2456 11.6311C31.4817 11.7215 31.6951 11.7542 31.886 11.7291C32.0794 11.704 32.2501 11.6161 32.3983 11.4654C32.5465 11.3147 32.672 11.0937 32.775 10.8024L33.0387 10.0791L30.9179 4.21383H31.4113L33.2497 9.40858H33.2873L35.1256 4.21383H35.6191L33.1781 10.9832C33.0852 11.2444 32.9684 11.4629 32.8278 11.6387C32.6871 11.8145 32.5264 11.9463 32.3456 12.0342C32.1673 12.1246 31.9714 12.1698 31.7579 12.1698ZM39.0179 10.1205C38.5257 10.1205 38.0925 9.99121 37.7183 9.73254C37.3441 9.47136 37.0515 9.11475 36.8406 8.6627C36.6321 8.21066 36.5279 7.69834 36.5279 7.12575C36.5279 6.55316 36.6334 6.04084 36.8444 5.5888C37.0553 5.13675 37.3479 4.78014 37.7221 4.51896C38.0963 4.25778 38.527 4.12719 39.0142 4.12719C39.3808 4.12719 39.7148 4.20253 40.0162 4.35321C40.3201 4.50389 40.5712 4.71359 40.7696 4.98231C40.9705 5.25102 41.0986 5.56243 41.1538 5.91653H40.6867C40.6114 5.52476 40.423 5.20079 40.1217 4.94464C39.8228 4.68596 39.4549 4.55663 39.0179 4.55663C38.6262 4.55663 38.2771 4.66713 37.9707 4.88813C37.6643 5.10662 37.4232 5.40924 37.2474 5.79599C37.0716 6.18022 36.9837 6.62097 36.9837 7.11822C36.9837 7.60793 37.0691 8.04742 37.2399 8.43668C37.4107 8.82343 37.6492 9.12981 37.9556 9.35584C38.262 9.58186 38.6161 9.69487 39.0179 9.69487C39.3017 9.69487 39.5604 9.63836 39.7939 9.52535C40.03 9.41234 40.2272 9.25162 40.3854 9.04317C40.5436 8.83473 40.6478 8.59113 40.698 8.31237H41.1651C41.1099 8.66898 40.9843 8.9829 40.7884 9.25413C40.5926 9.52535 40.3427 9.73756 40.0388 9.89076C39.7349 10.0439 39.3946 10.1205 39.0179 10.1205ZM44.9887 10.1205C44.4663 10.1205 44.0118 9.99121 43.625 9.73254C43.2383 9.47387 42.9394 9.11977 42.7285 8.67024C42.5175 8.2207 42.412 7.70839 42.412 7.13328C42.412 6.55567 42.5175 6.04084 42.7285 5.5888C42.9419 5.13675 43.2345 4.78014 43.6062 4.51896C43.9779 4.25778 44.4023 4.12719 44.8794 4.12719C45.2034 4.12719 45.5098 4.19248 45.7986 4.32307C46.0899 4.45115 46.3461 4.63699 46.5671 4.8806C46.7906 5.1242 46.9651 5.41803 47.0907 5.76208C47.2188 6.10614 47.2828 6.49289 47.2828 6.92233V7.20862H42.7021V6.79048H46.8232C46.8232 6.37109 46.7379 5.99313 46.5671 5.65661C46.3963 5.32008 46.164 5.05262 45.8702 4.85423C45.5763 4.65583 45.2461 4.55663 44.8794 4.55663C44.4952 4.55663 44.1524 4.66462 43.851 4.8806C43.5522 5.09406 43.3149 5.38287 43.1391 5.74701C42.9658 6.11116 42.8754 6.518 42.8678 6.96753V7.15589C42.8678 7.63807 42.952 8.07128 43.1202 8.45551C43.291 8.83724 43.5346 9.13986 43.851 9.36337C44.1675 9.58437 44.5467 9.69487 44.9887 9.69487C45.3051 9.69487 45.5751 9.64213 45.7986 9.53665C46.0246 9.42867 46.2092 9.29808 46.3524 9.14488C46.4955 8.99169 46.6035 8.84352 46.6763 8.70037L47.0945 8.86989C47.0066 9.06326 46.8697 9.25664 46.6839 9.45001C46.5005 9.64088 46.267 9.80035 45.9832 9.92843C45.7019 10.0565 45.3704 10.1205 44.9887 10.1205ZM44.6308 3.38885L45.6404 1.72382H46.1866L45.0527 3.38885H44.6308ZM51.1214 10.1205C50.5991 10.1205 50.1445 9.99121 49.7578 9.73254C49.371 9.47387 49.0722 9.11977 48.8612 8.67024C48.6503 8.2207 48.5448 7.70839 48.5448 7.13328C48.5448 6.55567 48.6503 6.04084 48.8612 5.5888C49.0747 5.13675 49.3672 4.78014 49.7389 4.51896C50.1106 4.25778 50.535 4.12719 51.0122 4.12719C51.3361 4.12719 51.6425 4.19248 51.9313 4.32307C52.2227 4.45115 52.4788 4.63699 52.6998 4.8806C52.9233 5.1242 53.0979 5.41803 53.2234 5.76208C53.3515 6.10614 53.4156 6.49289 53.4156 6.92233V7.20862H48.8348V6.79048H52.956C52.956 6.37109 52.8706 5.99313 52.6998 5.65661C52.529 5.32008 52.2967 5.05262 52.0029 4.85423C51.7091 4.65583 51.3788 4.55663 51.0122 4.55663C50.6279 4.55663 50.2851 4.66462 49.9838 4.8806C49.6849 5.09406 49.4476 5.38287 49.2718 5.74701C49.0985 6.11116 49.0081 6.518 49.0006 6.96753V7.15589C49.0006 7.63807 49.0847 8.07128 49.253 8.45551C49.4237 8.83724 49.6674 9.13986 49.9838 9.36337C50.3002 9.58437 50.6794 9.69487 51.1214 9.69487C51.4379 9.69487 51.7078 9.64213 51.9313 9.53665C52.1574 9.42867 52.3419 9.29808 52.4851 9.14488C52.6282 8.99169 52.7362 8.84352 52.8091 8.70037L53.2272 8.86989C53.1393 9.06326 53.0024 9.25664 52.8166 9.45001C52.6333 9.64088 52.3997 9.80035 52.1159 9.92843C51.8347 10.0565 51.5032 10.1205 51.1214 10.1205Z" fill="#FBFBFB"/>
<path d="M32.7769 17.7066H36.4096L43.4401 37.3479H40.3323L38.1914 31.4362H32.7078L33.7576 28.5355H37.1416L34.6001 21.5188L28.8542 37.3479H25.7463L32.7769 17.7066ZM42.3489 17.7066H58.3438V20.6072H51.8105V37.3479H48.8822V20.6072H42.3489V17.7066ZM60.83 17.7066H76.0652V20.6072H63.7445V34.4335H76.0652V37.3479H60.83V17.7066ZM65.402 25.6764H76.0652V28.577H65.402V25.6764ZM79.6702 17.7066H82.336L88.676 25.4554L95.0159 17.7066H97.6817V37.3479H94.7673V22.6652L89.8915 28.577H87.4743L82.5847 22.6652V37.3479H79.6702V17.7066Z" fill="#FBFBFB"/>
</svg>
