<svg width="200" height="115" viewBox="0 0 200 115" fill="none" xmlns="http://www.w3.org/2000/svg">
<rect width="200" height="115" fill="#090909"/>
<path d="M41.7333 60.0334C43.3367 60.0334 44.2 59.1701 44.2 57.5667V55.1334C44.2 53.5301 43.3367 52.6667 41.7333 52.6667H25V62.6667H27.2667V60.0334H41.7333ZM41.9333 55.2667V57.4334C41.9333 57.6934 41.7933 57.8334 41.5333 57.8334H27.2667V54.8667H41.5333C41.7933 54.8667 41.9333 55.0067 41.9333 55.2667ZM49.5333 62.6667C47.93 62.6667 47.0667 61.8034 47.0667 60.2001V55.1334C47.0667 53.5301 47.93 52.6667 49.5333 52.6667H63.4333C65.0367 52.6667 65.9 53.5301 65.9 55.1334V60.2001C65.9 61.8034 65.0367 62.6667 63.4333 62.6667H49.5333ZM63.2333 60.4667C63.4933 60.4667 63.6333 60.3267 63.6333 60.0667V55.2667C63.6333 55.0067 63.4933 54.8667 63.2333 54.8667H49.7333C49.4733 54.8667 49.3333 55.0067 49.3333 55.2667V60.0667C49.3333 60.3267 49.4733 60.4667 49.7333 60.4667H63.2333ZM85.7333 59.2667C87.0615 59.8253 87.995 61.1367 88 62.6667H85.7333C85.7333 60.8667 84.9 60.0334 83.1 60.0334H71.0667V62.6667H68.8V52.6667H85.5333C87.1367 52.6667 88 53.5301 88 55.1334V56.8047C88 58.3401 87.2083 59.1967 85.7333 59.2667ZM85.3333 57.8334C85.5933 57.8334 85.7333 57.6934 85.7333 57.4334V55.2667C85.7333 55.0067 85.5933 54.8667 85.3333 54.8667H71.0667V57.8334H85.3333ZM90.7331 55.1334C90.7331 53.5301 91.5969 52.6667 93.2 52.6667H109.6V54.5334H93.4C93.14 54.5334 93 54.6734 93 54.9334V56.3334C93 56.5934 93.14 56.7334 93.4 56.7334H107.467C109.07 56.7334 109.933 57.5967 109.933 59.2001V60.2001C109.933 61.8034 109.07 62.6667 107.467 62.6667H91.0669V60.8001H107.267C107.527 60.8001 107.667 60.6601 107.667 60.4001V59.0001C107.667 58.7401 107.527 58.6001 107.267 58.6001H93.2C91.5969 58.6001 90.7331 57.7367 90.7331 56.1334V55.1334ZM112.767 55.1334C112.767 53.5301 113.63 52.6667 115.233 52.6667H131.233V54.8667H115.433C115.173 54.8667 115.033 55.0067 115.033 55.2667V60.0667C115.033 60.3267 115.173 60.4667 115.433 60.4667H131.233V62.6667H115.233C113.63 62.6667 112.767 61.8034 112.767 60.2001V55.1334ZM152.233 52.6667V62.6667H149.967V58.7667H136.4V62.6667H134.133V52.6667H136.4V56.5667H149.967V52.6667H152.233ZM157.433 54.5334V56.7334H175V58.6001H157.433V60.8001H175V62.6667H155.167V52.6667H175V54.5334H157.433Z" fill="white"/>
</svg>
