<svg width="200" height="115" viewBox="0 0 200 115" fill="none" xmlns="http://www.w3.org/2000/svg">
<rect width="200" height="115" fill="#090909"/>
<path d="M88.5017 50.8323C91.5717 50.8323 94.0263 51.5999 95.9047 53.3066C97.1873 54.4683 97.9043 56.1246 97.8843 57.8616C97.8795 58.7183 97.7016 59.5651 97.3615 60.3513C97.0213 61.1375 96.5258 61.8469 95.9047 62.4369C94.1473 64.0529 91.4103 64.9113 88.5013 64.9113C85.593 64.9113 82.9063 64.0529 81.1187 62.4369C79.816 61.2753 79.0887 59.6089 79.1087 57.8616C79.1087 56.1349 79.836 54.4783 81.1187 53.3066C82.7853 51.7916 85.7343 50.8323 88.5017 50.8323ZM88.5117 63.0629C90.047 63.0629 91.471 62.5276 92.471 61.5379C93.4707 60.5383 93.915 59.3363 93.915 57.8616C93.915 56.4476 93.4203 55.1249 92.4707 54.1853C91.4913 53.2159 90.0267 52.6703 88.5117 52.6703C86.9967 52.6703 85.5323 53.2159 84.5427 54.1853C83.5933 55.1246 83.0983 56.4476 83.0983 57.8619C83.0783 59.2253 83.5933 60.5486 84.5427 61.5383C85.5323 62.5179 86.9867 63.0629 88.5117 63.0629ZM72.3723 56.5079C72.9073 56.6493 73.4223 56.8213 73.9277 57.0533C74.3942 57.2656 74.8211 57.556 75.19 57.9119C75.8467 58.5986 76.22 59.5176 76.21 60.4669C76.2166 60.9681 76.1058 61.4639 75.8866 61.9146C75.6675 62.3654 75.3459 62.7586 74.9477 63.0629C74.2419 63.5986 73.4395 63.993 72.5843 64.2246C71.2974 64.6281 69.9534 64.8192 68.605 64.7903C67.4317 64.7903 66.7827 64.6549 65.8923 64.4696L65.6357 64.4163C64.6557 64.1943 63.6967 63.8913 62.7773 63.4873C62.7359 63.4588 62.6863 63.4447 62.636 63.4469C62.4847 63.4469 62.3633 63.5783 62.3633 63.7296V64.4063H60.404V59.4776H62.1513C62.1614 59.9768 62.3195 60.4618 62.6057 60.8709C63.3127 61.7399 64.0703 62.0733 64.7973 62.3359C66.0193 62.7399 67.302 62.9519 68.5847 62.9923C70.4267 62.9923 71.5033 62.5456 71.7363 62.4489L71.7663 62.4366L71.787 62.4289C71.9923 62.3536 72.8267 62.0479 72.8267 61.1236C72.8267 60.2093 72.0473 60.0103 71.5367 59.8803L71.4633 59.8609C70.894 59.7076 69.59 59.5703 68.1643 59.4199L67.6557 59.3666C66.0397 59.1949 64.4237 58.9423 63.6663 58.7806C62.0073 58.4149 61.3523 57.8083 60.9463 57.4323L60.919 57.4069C60.3266 56.7751 59.9978 55.9408 60 55.0746C60 53.4179 61.1313 52.4179 62.525 51.8023C64.0097 51.1356 65.777 50.8423 67.3223 50.8423C70.0593 50.8526 72.2813 51.7413 73.079 52.1556C73.4023 52.3273 73.564 52.1153 73.564 51.9536V51.4589H75.3213V55.7509H73.7457C73.6045 55.114 73.2608 54.5399 72.766 54.1146C72.4643 53.8724 72.1313 53.672 71.776 53.5189C70.4533 52.9633 69.0393 52.6806 67.605 52.7006C66.1307 52.7006 64.7167 52.9839 64.0097 53.4183C63.5653 53.6909 63.343 54.0343 63.343 54.4383C63.343 55.0139 63.8277 55.2463 64.0703 55.3169C64.726 55.5159 66.1797 55.6603 67.3103 55.7733C67.5557 55.7976 67.7857 55.8206 67.989 55.8419C69.0797 55.9533 71.3623 56.2556 72.3723 56.5079ZM132.93 53.1859V51.5903H140V53.1556H138.414C137.839 53.1556 137.606 53.2669 137.172 53.7516L132.415 59.1849C132.366 59.252 132.344 59.3352 132.354 59.4176V61.8919C132.362 62.007 132.376 62.1215 132.395 62.2353C132.423 62.3084 132.467 62.3739 132.525 62.4266C132.583 62.4792 132.653 62.5175 132.728 62.5383C132.872 62.5584 133.017 62.5684 133.162 62.5683H134.778V64.1343H126.204V62.5686H127.739C127.884 62.5686 128.029 62.5585 128.173 62.5383C128.249 62.5159 128.319 62.4771 128.378 62.4247C128.438 62.3723 128.485 62.3075 128.517 62.2349C128.537 62.1249 128.547 62.0134 128.547 61.9016V59.4276C128.547 59.3469 128.547 59.3469 128.436 59.2156C126.87 57.432 125.301 55.6511 123.729 53.8729C123.477 53.6103 123.042 53.1859 122.376 53.1859H120.851V51.6206H129.476V53.1859H128.436C128.203 53.1859 128.042 53.4183 128.244 53.6709C128.244 53.6709 131.142 57.1349 131.173 57.1753C131.203 57.2159 131.223 57.2159 131.264 57.1853C131.304 57.1553 134.243 53.7009 134.263 53.6709C134.311 53.6065 134.332 53.5258 134.321 53.4463C134.309 53.3668 134.267 53.295 134.203 53.2466C134.143 53.2069 134.073 53.1858 134.001 53.1859H132.93ZM111.983 53.1756H113.599C114.337 53.1756 114.468 53.4583 114.478 54.1453L114.569 59.3666L105.964 51.6199H99.8133V53.1856H101.187C102.177 53.1856 102.247 53.7309 102.247 54.2156V61.5949C102.249 62.0233 102.25 62.5783 101.641 62.5783H99.9547V64.1339H107.166V62.5683H105.408C104.702 62.5683 104.671 62.2449 104.661 61.5583V55.2863L114.569 64.1233H117.094L116.963 54.1346C116.973 53.4079 117.023 53.1653 117.771 53.1653H119.346V51.5996H111.983V53.1756Z" fill="white"/>
</svg>
