<svg width="151" height="67" viewBox="0 0 151 67" fill="none" xmlns="http://www.w3.org/2000/svg">
<path d="M14.9689 9.34786C22.0528 9.34903 27.7943 15.0929 27.7933 22.1769C27.7921 29.2607 22.0491 35.0021 14.9652 35.0012C7.88128 35.0002 2.13905 29.2571 2.13993 22.1732L2.14178 9.34601L14.9689 9.34786Z" stroke="white" stroke-width="4.2756"/>
<path d="M17.1043 22.1749C17.104 23.3555 16.1469 24.3125 14.9663 24.3123C13.7858 24.312 12.8289 23.3548 12.8289 22.1743C12.8291 20.9937 13.7863 20.0369 14.9669 20.0369C16.1476 20.0371 17.1045 20.9942 17.1043 22.1749Z" stroke="white" stroke-width="25.6536"/>
<path fill-rule="evenodd" clip-rule="evenodd" d="M0.00244141 59.7982V38.8514C4.17088 41.9825 9.35228 43.8378 14.967 43.8378C20.5818 43.8378 25.7632 41.9825 29.9316 38.8514V59.7982C25.7632 56.6672 20.5818 54.8118 14.967 54.8118C9.35228 54.8118 4.17088 56.6672 0.00244141 59.7982Z" fill="#09BC68"/>
<path d="M39.5936 15V3.38944H40.3023V14.3424H45.9715V15H39.5936ZM47.7941 18.2655C47.6203 18.2655 47.4483 18.2466 47.2782 18.2088C47.1082 18.171 46.9551 18.1219 46.819 18.0614L47.0231 17.4548C47.3784 17.5908 47.6997 17.64 47.9869 17.6022C48.2779 17.5644 48.5349 17.4321 48.7579 17.2053C48.9809 16.9786 49.1699 16.646 49.3248 16.2075L49.7217 15.1191L46.5299 6.29208H47.2726L50.0392 14.1099H50.0958L52.8624 6.29208H53.6051L49.9314 16.4797C49.7916 16.8727 49.6159 17.2015 49.4042 17.4661C49.1926 17.7307 48.9507 17.9291 48.6785 18.0614C48.4102 18.1974 48.1154 18.2655 47.7941 18.2655ZM58.7201 15.1814C57.9794 15.1814 57.3274 14.9868 56.7643 14.5975C56.2011 14.2044 55.7608 13.6677 55.4433 12.9874C55.1296 12.3071 54.9728 11.5361 54.9728 10.6744C54.9728 9.81266 55.1315 9.04165 55.449 8.36134C55.7665 7.68104 56.2068 7.14435 56.7699 6.75128C57.3331 6.35822 57.9813 6.16169 58.7145 6.16169C59.2663 6.16169 59.769 6.27507 60.2225 6.50184C60.6798 6.72861 61.0578 7.04419 61.3563 7.4486C61.6587 7.853 61.8514 8.32166 61.9346 8.85457H61.2316C61.1182 8.26497 60.8348 7.77741 60.3812 7.39191C59.9315 7.00262 59.3778 6.80798 58.7201 6.80798C58.1305 6.80798 57.6052 6.97427 57.1441 7.30687C56.683 7.63568 56.3202 8.09111 56.0556 8.67315C55.791 9.25141 55.6588 9.91471 55.6588 10.663C55.6588 11.4 55.7873 12.0615 56.0443 12.6473C56.3013 13.2293 56.6603 13.6904 57.1214 14.0306C57.5825 14.3707 58.1154 14.5408 58.7201 14.5408C59.1472 14.5408 59.5365 14.4558 59.888 14.2857C60.2433 14.1156 60.54 13.8737 60.7781 13.56C61.0162 13.2463 61.173 12.8797 61.2486 12.4602H61.9516C61.8685 12.9969 61.6795 13.4693 61.3847 13.8775C61.0899 14.2857 60.7138 14.605 60.2565 14.8356C59.7992 15.0661 59.2871 15.1814 58.7201 15.1814ZM67.7059 15.1814C66.9197 15.1814 66.2356 14.9868 65.6536 14.5975C65.0716 14.2082 64.6218 13.6753 64.3043 12.9988C63.9869 12.3222 63.8281 11.5512 63.8281 10.6857C63.8281 9.81644 63.9869 9.04165 64.3043 8.36134C64.6256 7.68104 65.0659 7.14435 65.6253 6.75128C66.1846 6.35822 66.8234 6.16169 67.5415 6.16169C68.029 6.16169 68.4901 6.25995 68.9247 6.45649C69.3632 6.64924 69.7487 6.92892 70.0813 7.29553C70.4176 7.66214 70.6803 8.10434 70.8693 8.62213C71.062 9.13992 71.1584 9.72196 71.1584 10.3682V10.7991H64.2646V10.1698H70.4668C70.4668 9.53865 70.3383 8.96984 70.0813 8.46339C69.8243 7.95694 69.4747 7.55442 69.0325 7.25585C68.5903 6.95727 68.0933 6.80798 67.5415 6.80798C66.9632 6.80798 66.4473 6.97049 65.9938 7.29553C65.544 7.61679 65.1868 8.05143 64.9223 8.59945C64.6615 9.14747 64.5254 9.75975 64.5141 10.4363V10.7197C64.5141 11.4454 64.6407 12.0974 64.8939 12.6756C65.1509 13.2501 65.5175 13.7055 65.9938 14.0419C66.47 14.3745 67.0407 14.5408 67.7059 14.5408C68.1821 14.5408 68.5884 14.4614 68.9247 14.3027C69.2649 14.1402 69.5427 13.9436 69.7581 13.7131C69.9736 13.4825 70.1361 13.2595 70.2457 13.0441L70.875 13.2992C70.7427 13.5903 70.5367 13.8813 70.257 14.1723C69.9811 14.4595 69.6296 14.6995 69.2025 14.8923C68.7792 15.085 68.2803 15.1814 67.7059 15.1814ZM67.1673 5.05052L68.6866 2.54472H69.5087L67.8022 5.05052H67.1673ZM76.9354 15.1814C76.1492 15.1814 75.4651 14.9868 74.8831 14.5975C74.3011 14.2082 73.8513 13.6753 73.5338 12.9988C73.2163 12.3222 73.0576 11.5512 73.0576 10.6857C73.0576 9.81644 73.2163 9.04165 73.5338 8.36134C73.8551 7.68104 74.2954 7.14435 74.8547 6.75128C75.4141 6.35822 76.0528 6.16169 76.7709 6.16169C77.2585 6.16169 77.7196 6.25995 78.1542 6.45649C78.5927 6.64924 78.9782 6.92892 79.3108 7.29553C79.6471 7.66214 79.9098 8.10434 80.0988 8.62213C80.2915 9.13992 80.3879 9.72196 80.3879 10.3682V10.7991H73.4941V10.1698H79.6963C79.6963 9.53865 79.5678 8.96984 79.3108 8.46339C79.0537 7.95694 78.7041 7.55442 78.2619 7.25585C77.8197 6.95727 77.3227 6.80798 76.7709 6.80798C76.1927 6.80798 75.6768 6.97049 75.2232 7.29553C74.7735 7.61679 74.4163 8.05143 74.1518 8.59945C73.891 9.14747 73.7549 9.75975 73.7436 10.4363V10.7197C73.7436 11.4454 73.8702 12.0974 74.1234 12.6756C74.3804 13.2501 74.747 13.7055 75.2232 14.0419C75.6995 14.3745 76.2702 14.5408 76.9354 14.5408C77.4116 14.5408 77.8179 14.4614 78.1542 14.3027C78.4944 14.1402 78.7722 13.9436 78.9876 13.7131C79.203 13.4825 79.3656 13.2595 79.4752 13.0441L80.1044 13.2992C79.9722 13.5903 79.7662 13.8813 79.4865 14.1723C79.2106 14.4595 78.8591 14.6995 78.432 14.8923C78.0087 15.085 77.5098 15.1814 76.9354 15.1814Z" fill="#FBFBFB"/>
<path d="M49.3277 26.4495H54.7947L65.3753 56.0088H60.6982L57.4762 47.1119H49.2237L50.8036 42.7466H55.8964L52.0716 32.1867L43.4241 56.0088H38.747L49.3277 26.4495ZM63.7332 26.4495H87.8047V30.8148H77.9723V56.0088H73.5655V30.8148H63.7332V26.4495ZM91.5464 26.4495H114.475V30.8148H95.9324V51.6227H114.475V56.0088H91.5464V26.4495ZM98.4269 38.4437H114.475V42.809H98.4269V38.4437ZM119.9 26.4495H123.912L133.453 38.1111L142.995 26.4495H147.006V56.0088H142.62V33.9121L135.282 42.809H131.645L124.286 33.9121V56.0088H119.9V26.4495Z" fill="#FBFBFB"/>
</svg>
