<svg width="30" height="53" viewBox="0 0 30 53" fill="none" xmlns="http://www.w3.org/2000/svg">
<path d="M14.9689 2.13985C22.0528 2.14102 27.7943 7.88491 27.7933 14.9689C27.7921 22.0527 22.0491 27.7941 14.9652 27.7932C7.88128 27.7922 2.13905 22.0491 2.13993 14.9652L2.14178 2.138L14.9689 2.13985Z" stroke="#090909" stroke-width="4.2756"/>
<path d="M17.1043 14.9669C17.104 16.1475 16.1469 17.1045 14.9663 17.1043C13.7858 17.104 12.8289 16.1467 12.8289 14.9663C12.8291 13.7857 13.7863 12.8289 14.9669 12.8289C16.1476 12.8291 17.1045 13.7862 17.1043 14.9669Z" stroke="#090909" stroke-width="25.6536"/>
<path fill-rule="evenodd" clip-rule="evenodd" d="M0.00244141 52.5902V31.6434C4.17088 34.7745 9.35228 36.6298 14.967 36.6298C20.5818 36.6298 25.7632 34.7745 29.9316 31.6434V52.5902C25.7632 49.4592 20.5818 47.6038 14.967 47.6038C9.35228 47.6038 4.17088 49.4592 0.00244141 52.5902Z" fill="#09BC68"/>
</svg>
