<svg width="200" height="115" viewBox="0 0 200 115" fill="none" xmlns="http://www.w3.org/2000/svg">
<rect width="200" height="115" fill="#090909"/>
<path d="M109.624 54.2099C108.524 54.2099 107.524 54.6322 104.445 56.8422V68.7349C109.784 62.7357 111.304 58.6312 111.304 56.5254C111.298 55.0516 110.618 54.2099 109.624 54.2099ZM110.044 46.3162C110.044 44.2048 107.636 42.4735 104.445 42.2637V53.2626C108.472 50.8951 110.043 48.5204 110.043 46.3162H110.044ZM119.521 41.6485C119.47 41.4388 119.416 41.3599 119.311 41.3332L115.537 40.3324L115.014 38.1746C114.987 38.069 114.96 37.9902 114.857 37.9649L110.982 36.912L110.512 34.8583C110.505 34.7342 110.421 34.6282 110.302 34.595L100.242 32.7188C100.077 32.6878 99.9085 32.6878 99.7437 32.7188L89.6801 34.595C89.5611 34.6282 89.4764 34.7342 89.47 34.8583L88.9983 36.912L85.1249 37.9635C85.0199 37.9889 84.9947 38.0676 84.9681 38.1732L84.4446 40.331L80.6804 41.3332C80.5768 41.36 80.5236 41.4388 80.4718 41.6485C80.154 43.3319 79.996 45.0419 80.0001 46.7553C80.0001 61.9151 87.8533 75.0761 99.5801 82.9192C99.6793 83.0521 99.8348 83.1303 100 83.1303C100.165 83.1303 100.321 83.0521 100.42 82.9192C112.147 75.0761 120 61.9151 120 46.7553C120.001 45.0417 119.84 43.3318 119.52 41.6485H119.521ZM98.5232 75.9459C98.5232 76.0515 98.4182 76.1036 98.3146 75.9981C95.4351 72.6832 93.4991 68.6308 92.1902 64.2094L90.2009 65.4763C89.6774 65.845 89.2588 65.6874 88.941 65.1089C86.2715 60.3724 84.544 52.5813 84.3872 47.1099C84.3796 46.8558 84.474 46.6093 84.649 46.4258C85.3617 45.5677 86.1311 44.7589 86.9518 44.0047C87.1086 43.847 87.2667 43.9513 87.2667 44.2144C87.2667 50.9512 88.4174 57.2136 90.2499 61.3195C90.4067 61.6348 90.5635 61.6348 90.7734 61.4772L91.3487 61.1085C90.2498 56.2143 89.6212 49.6887 89.778 42.1623C89.778 41.899 89.8313 41.7935 89.9881 41.6893C90.7903 41.1863 91.6299 40.7463 92.4994 40.3732C92.7612 40.2676 92.8143 40.3211 92.8143 40.5309C92.6659 51.4763 93.5591 59.052 95.4923 65.1046C95.5441 65.2623 95.7009 65.2087 95.7009 65.0511C95.5958 62.8412 95.5958 60.8945 95.5958 58.5256L95.4923 39.6315C95.4923 39.4218 95.5441 39.3162 95.7541 39.2641C96.6153 39.0503 97.4892 38.8919 98.3704 38.7898C98.4135 38.7842 98.4567 38.7989 98.4873 38.8298C98.518 38.8606 98.5327 38.9041 98.5272 38.9473L98.5232 75.9459ZM101.664 75.9981C101.559 76.1036 101.454 76.0515 101.454 75.9459V38.9488C101.449 38.9055 101.464 38.862 101.494 38.8312C101.525 38.8004 101.568 38.7856 101.611 38.7912C108.624 39.2655 113.127 42.213 113.127 46.4752C113.126 48.2435 112.473 49.9487 111.294 51.261C113.597 51.893 114.487 53.63 114.487 55.9455C114.491 60.0515 111.508 66.8417 101.669 75.9981H101.664Z" fill="white"/>
</svg>
